<?xml version="1.0" encoding="UTF-8" standalone="no"?>
<!DOCTYPE svg PUBLIC "-//W3C//DTD SVG 1.1//EN"
 "http://www.w3.org/Graphics/SVG/1.1/DTD/svg11.dtd">
<!-- Generated by graphviz version 7.0.1 (20221109.1506)
 -->
<!-- Pages: 1 -->
<svg width="514pt" height="332pt"
 viewBox="0.00 0.00 513.54 332.00" xmlns="http://www.w3.org/2000/svg" xmlns:xlink="http://www.w3.org/1999/xlink">
<g id="graph0" class="graph" transform="scale(1 1) rotate(0) translate(4 328)">
<polygon fill="white" stroke="none" points="-4,4 -4,-328 509.54,-328 509.54,4 -4,4"/>
<!-- [root] aws_subnet.vpc&#45;demo_subnet_9E5EBFD2 (expand) -->
<g id="node1" class="node">
<title>[root] aws_subnet.vpc&#45;demo_subnet_9E5EBFD2 (expand)</title>
<polygon fill="none" stroke="black" points="377.77,-180 127.77,-180 127.77,-144 377.77,-144 377.77,-180"/>
<text text-anchor="middle" x="252.77" y="-158.3" font-family="Times,serif" font-size="14.00">aws_subnet.vpc&#45;demo_subnet_9E5EBFD2</text>
</g>
<!-- [root] aws_vpc.vpc&#45;demo_vpc_1038F0A3 (expand) -->
<g id="node2" class="node">
<title>[root] aws_vpc.vpc&#45;demo_vpc_1038F0A3 (expand)</title>
<polygon fill="none" stroke="black" points="359.27,-108 146.27,-108 146.27,-72 359.27,-72 359.27,-108"/>
<text text-anchor="middle" x="252.77" y="-86.3" font-family="Times,serif" font-size="14.00">aws_vpc.vpc&#45;demo_vpc_1038F0A3</text>
</g>
<!-- [root] aws_subnet.vpc&#45;demo_subnet_9E5EBFD2 (expand)&#45;&gt;[root] aws_vpc.vpc&#45;demo_vpc_1038F0A3 (expand) -->
<g id="edge1" class="edge">
<title>[root] aws_subnet.vpc&#45;demo_subnet_9E5EBFD2 (expand)&#45;&gt;[root] aws_vpc.vpc&#45;demo_vpc_1038F0A3 (expand)</title>
<path fill="none" stroke="black" d="M252.77,-143.7C252.77,-136.41 252.77,-127.73 252.77,-119.54"/>
<polygon fill="black" stroke="black" points="256.27,-119.62 252.77,-109.62 249.27,-119.62 256.27,-119.62"/>
</g>
<!-- [root] provider[&quot;registry.terraform.io/hashicorp/aws&quot;] -->
<g id="node3" class="node">
<title>[root] provider[&quot;registry.terraform.io/hashicorp/aws&quot;]</title>
<polygon fill="none" stroke="black" points="252.77,-36 0.23,-18 252.77,0 505.3,-18 252.77,-36"/>
<text text-anchor="middle" x="252.77" y="-14.3" font-family="Times,serif" font-size="14.00">provider[&quot;registry.terraform.io/hashicorp/aws&quot;]</text>
</g>
<!-- [root] aws_vpc.vpc&#45;demo_vpc_1038F0A3 (expand)&#45;&gt;[root] provider[&quot;registry.terraform.io/hashicorp/aws&quot;] -->
<g id="edge2" class="edge">
<title>[root] aws_vpc.vpc&#45;demo_vpc_1038F0A3 (expand)&#45;&gt;[root] provider[&quot;registry.terraform.io/hashicorp/aws&quot;]</title>
<path fill="none" stroke="black" d="M252.77,-71.7C252.77,-64.41 252.77,-55.73 252.77,-47.54"/>
<polygon fill="black" stroke="black" points="256.27,-47.62 252.77,-37.62 249.27,-47.62 256.27,-47.62"/>
</g>
<!-- [root] provider[&quot;registry.terraform.io/hashicorp/aws&quot;] (close) -->
<g id="node4" class="node">
<title>[root] provider[&quot;registry.terraform.io/hashicorp/aws&quot;] (close)</title>
<ellipse fill="none" stroke="black" cx="252.77" cy="-234" rx="227.46" ry="18"/>
<text text-anchor="middle" x="252.77" y="-230.3" font-family="Times,serif" font-size="14.00">[root] provider[&quot;registry.terraform.io/hashicorp/aws&quot;] (close)</text>
</g>
<!-- [root] provider[&quot;registry.terraform.io/hashicorp/aws&quot;] (close)&#45;&gt;[root] aws_subnet.vpc&#45;demo_subnet_9E5EBFD2 (expand) -->
<g id="edge3" class="edge">
<title>[root] provider[&quot;registry.terraform.io/hashicorp/aws&quot;] (close)&#45;&gt;[root] aws_subnet.vpc&#45;demo_subnet_9E5EBFD2 (expand)</title>
<path fill="none" stroke="black" d="M252.77,-215.7C252.77,-208.41 252.77,-199.73 252.77,-191.54"/>
<polygon fill="black" stroke="black" points="256.27,-191.62 252.77,-181.62 249.27,-191.62 256.27,-191.62"/>
</g>
<!-- [root] root -->
<g id="node5" class="node">
<title>[root] root</title>
<ellipse fill="none" stroke="black" cx="252.77" cy="-306" rx="47.39" ry="18"/>
<text text-anchor="middle" x="252.77" y="-302.3" font-family="Times,serif" font-size="14.00">[root] root</text>
</g>
<!-- [root] root&#45;&gt;[root] provider[&quot;registry.terraform.io/hashicorp/aws&quot;] (close) -->
<g id="edge4" class="edge">
<title>[root] root&#45;&gt;[root] provider[&quot;registry.terraform.io/hashicorp/aws&quot;] (close)</title>
<path fill="none" stroke="black" d="M252.77,-287.7C252.77,-280.41 252.77,-271.73 252.77,-263.54"/>
<polygon fill="black" stroke="black" points="256.27,-263.62 252.77,-253.62 249.27,-263.62 256.27,-263.62"/>
</g>
</g>
</svg>
